<svg xmlns="http://www.w3.org/2000/svg" width="645.223" height="646.068" viewBox="0 0 645.223 646.068">
  <path id="Path_127582" data-name="Path 127582" d="M1230.926,862.18h209.648a51.722,51.722,0,0,0-2.736,16.5c0,25.377,22.2,46.815,48.467,46.815s48.467-21.438,48.467-46.815a44.271,44.271,0,0,0-3.287-16.5h210.2a34.976,34.976,0,0,1,34.874,34.874v83.253h.409v137.2c2.655,3.91,10.18-4.239,25.54-4.239,21.411,0,38.767,19.009,38.767,40.42s-17.356,40.419-38.767,40.419c-14.968,0-22.865-9.665-25.54-6.266v221.225a34.976,34.976,0,0,1-34.873,34.874H1522.9c-3.909,2.655,4.239,10.179,4.239,25.54,0,21.41-19.009,38.767-40.419,38.767s-40.42-17.357-40.42-38.767c0-14.968,9.666-22.865,6.266-25.54H1231.336a34.976,34.976,0,0,1-34.874-34.874V1060.392h-.41V897.054A34.977,34.977,0,0,1,1230.926,862.18Z" transform="translate(-1196.052 -862.18)"/>
</svg>
