<svg xmlns="http://www.w3.org/2000/svg" width="644.813" height="644.293" viewBox="0 0 644.813 644.293">
  <path id="Path_127581" data-name="Path 127581" d="M688.951,522.136c-15.361,0-22.885,8.148-25.54,4.238V307.84a34.976,34.976,0,0,0-34.874-34.874H407.312c-.245-.193-70.049-.194-70.335,0h-219.2A34.977,34.977,0,0,0,82.9,307.84v45.829h0V817.934a34.977,34.977,0,0,0,34.874,34.874h219.2c3.91,2.654-4.238,10.179-4.238,25.539,0,21.411,19.009,38.767,40.419,38.767s40.419-17.356,40.419-38.767c0-14.968-9.665-22.865-6.265-25.539H628.537a34.977,34.977,0,0,0,34.874-34.874V596.708c2.675-3.4,10.571,6.266,25.54,6.266,21.41,0,38.767-19.009,38.767-40.419S710.361,522.136,688.951,522.136Z" transform="translate(-82.905 -272.821)" fill="#bfbfbf"/>
</svg>
