<svg xmlns="http://www.w3.org/2000/svg" width="580.847" height="645.12" viewBox="0 0 580.847 645.12">
  <path id="Path_127591" data-name="Path 127591" d="M1806.651,272.3H1458.89v-.308H1295.552a34.977,34.977,0,0,0-34.874,34.874V516.516a51.732,51.732,0,0,1,16.505-2.735c25.376,0,46.815,22.2,46.815,48.466s-21.439,48.467-46.815,48.467a44.276,44.276,0,0,1-16.505-3.287v210.2a34.977,34.977,0,0,0,34.874,34.874h155.426v.307h64.112c3.91,2.655-4.238,10.18-4.238,25.54,0,21.411,19.009,38.767,40.419,38.767s40.419-17.356,40.419-38.767c0-14.968-9.665-22.865-6.265-25.54h221.225a34.977,34.977,0,0,0,34.874-34.874V307.176A34.977,34.977,0,0,0,1806.651,272.3Z" transform="translate(-1260.678 -271.994)" fill="#383838"/>
</svg>
