<svg xmlns="http://www.w3.org/2000/svg" width="580.506" height="580.504" viewBox="0 0 580.506 580.504">
  <path id="Path_127590" data-name="Path 127590" d="M628.537,863.437H418.89a51.748,51.748,0,0,1,2.735,16.5c0,25.376-22.195,46.815-48.467,46.815s-48.467-21.439-48.467-46.815a44.266,44.266,0,0,1,3.287-16.5h-210.2a34.976,34.976,0,0,0-34.874,34.874v209.647a51.72,51.72,0,0,1,16.5-2.735c25.376,0,46.815,22.195,46.815,48.467s-21.439,48.467-46.815,48.467a44.27,44.27,0,0,1-16.5-3.288v210.2a34.976,34.976,0,0,0,34.874,34.874H628.537a34.977,34.977,0,0,0,34.874-34.873V898.311A34.977,34.977,0,0,0,628.537,863.437Z" transform="translate(-82.905 -863.438)" fill="#ff4d59"/>
</svg>
