<svg xmlns="http://www.w3.org/2000/svg" width="645.12" height="580.847" viewBox="0 0 645.12 580.847">
  <path id="Path_127586" data-name="Path 127586" d="M545.973,644.812H198.212v.308H34.874A34.977,34.977,0,0,1,0,610.245V400.6a51.732,51.732,0,0,0,16.505,2.735c25.376,0,46.815-22.2,46.815-48.466S41.881,306.4,16.505,306.4A44.276,44.276,0,0,0,0,309.687V99.488A34.977,34.977,0,0,1,34.874,64.614H190.3v-.307h64.112c3.91-2.655-4.238-10.18-4.238-25.54C250.174,17.356,269.183,0,290.593,0s40.419,17.356,40.419,38.767c0,14.968-9.665,22.865-6.265,25.54H545.973a34.977,34.977,0,0,1,34.874,34.874V609.938A34.977,34.977,0,0,1,545.973,644.812Z" transform="translate(645.12) rotate(90)" fill="#ea202c"/>
</svg>
