<svg xmlns="http://www.w3.org/2000/svg" width="87.96" height="87.96" viewBox="0 0 87.96 87.96">
  <path id="Path_338164" data-name="Path 338164" d="M68.823,72.184H16.165A4.4,4.4,0,0,1,11.776,67.8V15.137a4.4,4.4,0,0,1,4.388-4.388H47.592a4.388,4.388,0,1,0,0-8.776H11.776A8.774,8.774,0,0,0,3,10.748V72.184a8.8,8.8,0,0,0,8.776,8.776H73.212a8.8,8.8,0,0,0,8.776-8.776V36.368a4.388,4.388,0,0,0-8.776,0V67.8A4.4,4.4,0,0,1,68.823,72.184ZM55.5-2.612a4.4,4.4,0,0,0,4.388,4.388H76L35.932,41.841a4.375,4.375,0,1,0,6.187,6.187L82.184,7.964V24.072a4.388,4.388,0,1,0,8.776,0V-2.612A4.4,4.4,0,0,0,86.572-7H59.888A4.4,4.4,0,0,0,55.5-2.612Z" transform="translate(-3 7)" fill="#575757"/>
</svg>
