<svg xmlns="http://www.w3.org/2000/svg" width="580.847" height="580.813" viewBox="0 0 580.847 580.813">
  <path id="Path_127584" data-name="Path 127584" d="M1806.651,916.806H1458.89v.308H1295.552a34.977,34.977,0,0,1-34.874-34.874V672.592a51.732,51.732,0,0,0,16.505,2.735c25.376,0,46.815-22.2,46.815-48.466s-21.439-48.467-46.815-48.467a44.276,44.276,0,0,0-16.505,3.287v-210.2a34.977,34.977,0,0,1,34.874-34.874h155.426V336.3h355.672a34.977,34.977,0,0,1,34.874,34.874V881.932A34.977,34.977,0,0,1,1806.651,916.806Z" transform="translate(-1260.678 -336.301)" fill="#fff"/>
</svg>
